# This file uses centimeters as units for non-parametric coordinates.

mtllib pipe.mtl
g default
v 0.951057 -6.000000 -0.309017
v 0.809018 -6.000000 -0.587786
v 0.587786 -6.000000 -0.809017
v 0.309017 -6.000000 -0.951057
v 0.000000 -6.000000 -1.000000
v -0.309017 -6.000000 -0.951057
v -0.587785 -6.000000 -0.809017
v -0.809017 -6.000000 -0.587785
v -0.951057 -6.000000 -0.309017
v -1.000000 -6.000000 0.000000
v -0.951057 -6.000000 0.309017
v -0.809017 -6.000000 0.587785
v -0.587785 -6.000000 0.809017
v -0.309017 -6.000000 0.951057
v -0.000000 -6.000000 1.000000
v 0.309017 -6.000000 0.951057
v 0.587785 -6.000000 0.809017
v 0.809017 -6.000000 0.587785
v 0.951057 -6.000000 0.309017
v 1.000000 -6.000000 0.000000
v 0.951057 6.000000 -0.309017
v 0.809018 6.000000 -0.587786
v 0.587786 6.000000 -0.809017
v 0.309017 6.000000 -0.951057
v 0.000000 6.000000 -1.000000
v -0.309017 6.000000 -0.951057
v -0.587785 6.000000 -0.809017
v -0.809017 6.000000 -0.587785
v -0.951057 6.000000 -0.309017
v -1.000000 6.000000 0.000000
v -0.951057 6.000000 0.309017
v -0.809017 6.000000 0.587785
v -0.587785 6.000000 0.809017
v -0.309017 6.000000 0.951057
v -0.000000 6.000000 1.000000
v 0.309017 6.000000 0.951057
v 0.587785 6.000000 0.809017
v 0.809017 6.000000 0.587785
v 0.951057 6.000000 0.309017
v 1.000000 6.000000 0.000000
v 0.000000 -6.000000 0.000000
v 0.000000 6.000000 0.000000
vt 0.852745 0.047346
vt 0.838030 0.025855
vt 0.817393 0.009963
vt 0.792855 0.001226
vt 0.766819 0.000500
vt 0.741832 0.007854
vt 0.720341 0.022570
vt 0.704450 0.043207
vt 0.695713 0.067744
vt 0.694986 0.093781
vt 0.702341 0.118767
vt 0.717056 0.140258
vt 0.737693 0.156150
vt 0.762230 0.164887
vt 0.788267 0.165613
vt 0.813253 0.158259
vt 0.834744 0.143543
vt 0.850636 0.122907
vt 0.859373 0.098369
vt 0.860100 0.072332
vt 0.562338 0.014533
vt 0.585977 0.003596
vt 0.611839 0.000499
vt 0.637392 0.005546
vt 0.660134 0.018242
vt 0.677841 0.037344
vt 0.688778 0.060983
vt 0.691875 0.086845
vt 0.686828 0.112398
vt 0.674133 0.135141
vt 0.655030 0.152847
vt 0.631391 0.163784
vt 0.605529 0.166881
vt 0.579976 0.161835
vt 0.557234 0.149139
vt 0.539527 0.130037
vt 0.528590 0.106398
vt 0.525493 0.080536
vt 0.530539 0.054983
vt 0.543236 0.032240
vt 0.777543 0.083056
vt 0.608684 0.083690
vt 0.286940 0.999500
vt 0.312987 0.999500
vt 0.260893 0.999500
vt 0.234847 0.999500
vt 0.208800 0.999501
vt 0.182754 0.999500
vt 0.156708 0.999500
vt 0.130662 0.999499
vt 0.104617 0.999499
vt 0.078571 0.999498
vt 0.052525 0.999498
vt 0.026479 0.999497
vt 0.469271 0.999497
vt 0.443225 0.999498
vt 0.417178 0.999499
vt 0.391130 0.999499
vt 0.365082 0.999500
vt 0.339034 0.999500
vt 0.286945 0.000501
vt 0.312991 0.000502
vt 0.260898 0.000501
vt 0.234851 0.000501
vt 0.208804 0.000500
vt 0.182757 0.000500
vt 0.156709 0.000500
vt 0.130662 0.000500
vt 0.104615 0.000499
vt 0.078568 0.000499
vt 0.052522 0.000500
vt 0.026476 0.000499
vt 0.469269 0.000503
vt 0.443222 0.000502
vt 0.417176 0.000503
vt 0.391129 0.000503
vt 0.365083 0.000502
vt 0.339037 0.000502
vt 0.000430 0.000500
vt 0.000432 0.999497
vt 0.495318 0.999496
vt 0.521364 0.999496
vt 0.495315 0.000503
vt 0.521361 0.000503
vn 0.951057 0.000000 -0.309016
vn 0.809017 0.000000 -0.587785
vn 0.809017 0.000000 -0.587785
vn 0.951057 0.000000 -0.309016
vn 0.587785 0.000000 -0.809017
vn 0.587785 0.000000 -0.809017
vn 0.309017 0.000000 -0.951057
vn 0.309017 0.000000 -0.951057
vn -0.000000 0.000000 -1.000000
vn -0.000000 0.000000 -1.000000
vn -0.309017 0.000000 -0.951057
vn -0.309017 0.000000 -0.951057
vn -0.587785 0.000000 -0.809017
vn -0.587785 0.000000 -0.809017
vn -0.809017 0.000000 -0.587785
vn -0.809017 0.000000 -0.587785
vn -0.951057 0.000000 -0.309017
vn -0.951057 0.000000 -0.309017
vn -1.000000 0.000000 0.000000
vn -1.000000 0.000000 0.000000
vn -0.951057 0.000000 0.309017
vn -0.951057 0.000000 0.309017
vn -0.809017 0.000000 0.587785
vn -0.809017 0.000000 0.587785
vn -0.587785 0.000000 0.809017
vn -0.587785 0.000000 0.809017
vn -0.309017 0.000000 0.951057
vn -0.309017 0.000000 0.951057
vn 0.000000 0.000000 1.000000
vn 0.000000 0.000000 1.000000
vn 0.309017 0.000000 0.951056
vn 0.309017 0.000000 0.951056
vn 0.587785 0.000000 0.809017
vn 0.587785 0.000000 0.809017
vn 0.809017 0.000000 0.587785
vn 0.809017 0.000000 0.587785
vn 0.951057 0.000000 0.309017
vn 0.951057 0.000000 0.309017
vn 1.000000 0.000000 0.000001
vn 1.000000 0.000000 0.000001
vn 0.000000 -1.000000 0.000001
vn 0.000000 -1.000000 0.000000
vn 0.000000 -1.000000 0.000000
vn 0.000000 -1.000000 0.000001
vn 0.000000 -1.000000 0.000000
vn 0.000000 -1.000000 0.000000
vn 0.000000 -1.000000 0.000000
vn 0.000000 -1.000000 0.000000
vn 0.000000 -1.000000 0.000000
vn 0.000000 -1.000000 0.000000
vn 0.000000 -1.000000 0.000000
vn 0.000000 -1.000000 0.000000
vn 0.000000 -1.000000 0.000000
vn 0.000000 -1.000000 0.000000
vn 0.000000 -1.000000 0.000000
vn 0.000000 -1.000000 0.000000
vn 0.000000 -1.000000 0.000000
vn 0.000000 -1.000000 0.000000
vn 0.000000 -1.000000 0.000000
vn 0.000000 -1.000000 0.000000
vn 0.000000 -1.000000 0.000000
vn 0.000000 1.000000 0.000000
vn 0.000000 1.000000 0.000000
vn 0.000000 1.000000 0.000000
vn 0.000000 1.000000 0.000000
vn 0.000000 1.000000 0.000000
vn 0.000000 1.000000 0.000000
vn 0.000000 1.000000 0.000000
vn 0.000000 1.000000 0.000000
vn 0.000000 1.000000 0.000000
vn 0.000000 1.000000 0.000000
vn 0.000000 1.000000 0.000000
vn 0.000000 1.000000 0.000000
vn 0.000000 1.000000 0.000000
vn 0.000000 1.000000 0.000000
vn 0.000000 1.000000 0.000000
vn 0.000000 1.000000 0.000000
vn 0.000000 1.000000 0.000000
vn 0.000000 1.000000 0.000000
vn 0.000000 1.000000 0.000000
vn 0.000000 1.000000 0.000000
vn 0.000000 1.000000 0.000000
s 1
g pCylinder4
usemtl initialShadingGroup
f 1/62/1 2/78/2 22/60/3 21/44/4
f 2/78/2 3/77/5 23/59/6 22/60/3
f 3/77/5 4/76/7 24/58/8 23/59/6
f 4/76/7 5/75/9 25/57/10 24/58/8
f 5/75/9 6/74/11 26/56/12 25/57/10
f 6/74/11 7/73/13 27/55/14 26/56/12
f 7/73/13 8/83/15 28/81/16 27/55/14
f 8/83/15 9/84/17 29/82/18 28/81/16
f 9/79/17 10/72/19 30/54/20 29/80/18
f 10/72/19 11/71/21 31/53/22 30/54/20
f 11/71/21 12/70/23 32/52/24 31/53/22
f 12/70/23 13/69/25 33/51/26 32/52/24
f 13/69/25 14/68/27 34/50/28 33/51/26
f 14/68/27 15/67/29 35/49/30 34/50/28
f 15/67/29 16/66/31 36/48/32 35/49/30
f 16/66/31 17/65/33 37/47/34 36/48/32
f 17/65/33 18/64/35 38/46/36 37/47/34
f 18/64/35 19/63/37 39/45/38 38/46/36
f 19/63/37 20/61/39 40/43/40 39/45/38
f 20/61/39 1/62/1 21/44/4 40/43/40
s 2
f 2/2/41 1/1/42 41/41/43
f 3/3/44 2/2/41 41/41/43
f 4/4/45 3/3/44 41/41/43
f 5/5/46 4/4/45 41/41/43
f 6/6/47 5/5/46 41/41/43
f 7/7/48 6/6/47 41/41/43
f 8/8/49 7/7/48 41/41/43
f 9/9/50 8/8/49 41/41/43
f 10/10/51 9/9/50 41/41/43
f 11/11/52 10/10/51 41/41/43
f 12/12/53 11/11/52 41/41/43
f 13/13/54 12/12/53 41/41/43
f 14/14/55 13/13/54 41/41/43
f 15/15/56 14/14/55 41/41/43
f 16/16/57 15/15/56 41/41/43
f 17/17/58 16/16/57 41/41/43
f 18/18/59 17/17/58 41/41/43
f 19/19/60 18/18/59 41/41/43
f 20/20/61 19/19/60 41/41/43
f 1/1/42 20/20/61 41/41/43
s 3
f 21/21/62 22/22/63 42/42/64
f 22/22/63 23/23/65 42/42/64
f 23/23/65 24/24/66 42/42/64
f 24/24/66 25/25/67 42/42/64
f 25/25/67 26/26/68 42/42/64
f 26/26/68 27/27/69 42/42/64
f 27/27/69 28/28/70 42/42/64
f 28/28/70 29/29/71 42/42/64
f 29/29/71 30/30/72 42/42/64
f 30/30/72 31/31/73 42/42/64
f 31/31/73 32/32/74 42/42/64
f 32/32/74 33/33/75 42/42/64
f 33/33/75 34/34/76 42/42/64
f 34/34/76 35/35/77 42/42/64
f 35/35/77 36/36/78 42/42/64
f 36/36/78 37/37/79 42/42/64
f 37/37/79 38/38/80 42/42/64
f 38/38/80 39/39/81 42/42/64
f 39/39/81 40/40/82 42/42/64
f 40/40/82 21/21/62 42/42/64
